<svg xmlns="http://www.w3.org/2000/svg" xmlns:xlink="http://www.w3.org/1999/xlink"
    viewBox="0 0 1000 800">
    <defs>
        <linearGradient id="a" x1="367.02" x2="626.78" y1="418.289" y2="418.289"
            gradientTransform="matrix(1 0 0 -1 0 800)" gradientUnits="userSpaceOnUse">
            <stop offset="0" stop-color="#2e45e5" />
            <stop offset="1" stop-color="#3478e5" />
        </linearGradient>
        <linearGradient id="d" x1="509.2" x2="509.2" y1="250.124" y2="477.203" xlink:href="#a" />
        <linearGradient id="b" x1="479.67" x2="556.402" y1="496.979" y2="496.979"
            gradientTransform="matrix(1 0 0 -1 0 800)" gradientUnits="userSpaceOnUse">
            <stop offset="0" stop-color="#ffc496" />
            <stop offset="1" stop-color="#ff7c4b" />
        </linearGradient>
        <linearGradient id="e" x1="440.441" x2="643.618" y1="573.302" y2="540.851" xlink:href="#b" />
        <linearGradient id="c" x1="451.86" x2="589.413" y1="565.498" y2="671.946"
            gradientTransform="matrix(1 0 0 -1 0 800)" gradientUnits="userSpaceOnUse">
            <stop offset="0" />
            <stop offset=".37" stop-color="#1e191a" />
            <stop offset=".761" stop-color="#382e31" />
            <stop offset=".996" stop-color="#413639" />
        </linearGradient>
        <linearGradient id="f" x1="517.175" x2="657.561" y1="179.864" y2="179.864" xlink:href="#a" />
        <linearGradient id="g" x1="504.779" x2="504.779" y1="520.662" y2="621.962" xlink:href="#c" />
        <linearGradient id="h" x1="543.888" x2="564.51" y1="223.714" y2="223.714" xlink:href="#c" />
        <linearGradient id="i" x1="493.48" x2="573.95" y1="193.468" y2="193.468" xlink:href="#b" />
        <linearGradient id="j" x1="355.133" x2="506.72" y1="334.589" y2="334.589" xlink:href="#a" />
        <linearGradient id="k" x1="443.11" x2="490.87" y1="415.918" y2="415.918" xlink:href="#a" />
        <linearGradient id="l" x1="414.716" x2="441.948" y1="292.358" y2="292.358" xlink:href="#a" />
        <linearGradient id="m" x1="531.36" x2="653.68" y1="372.234" y2="372.234" xlink:href="#a" />
        <linearGradient id="n" x1="539.99" x2="578.44" y1="415.903" y2="415.903" xlink:href="#a" />
        <linearGradient id="o" x1="158.05" x2="355.9" y1="244.449" y2="244.449" xlink:href="#a" />
        <linearGradient id="p" x1="440.75" x2="841.95" y1="244.449" y2="244.449" xlink:href="#a" />
        <linearGradient id="q" x1="449.084" x2="453.081" y1="434.142" y2="434.142" xlink:href="#a" />
        <linearGradient id="r" x1="438.154" x2="447.275" y1="342.642" y2="342.642" xlink:href="#a" />
        <linearGradient id="s" x1="454.615" x2="463.736" y1="342.643" y2="342.643" xlink:href="#a" />
        <linearGradient id="t" x1="429.53" x2="472.352" y1="376.759" y2="376.759" xlink:href="#a" />
        <linearGradient id="u" x1="567.526" x2="571.93" y1="400.18" y2="400.18" xlink:href="#a" />
        <linearGradient id="v" x1="556.52" x2="585.36" y1="358.749" y2="358.749" xlink:href="#a" />
        <linearGradient id="w" x1="431.89" x2="470" y1="396.264" y2="396.264" xlink:href="#a" />
        <linearGradient id="x" x1="190.65" x2="303.19" y1="585.514" y2="585.514" xlink:href="#a" />
        <linearGradient id="y" x1="593.96" x2="819.72" y1="315.459" y2="315.459" xlink:href="#a" />
        <linearGradient id="z" x1="705.829" x2="716.23" y1="214.354" y2="214.354" xlink:href="#a" />
        <linearGradient id="A" x1="662.55" x2="745.76" y1="144.924" y2="144.924" xlink:href="#a" />
        <linearGradient id="B" x1="683.048" x2="744.179" y1="288.729" y2="288.729" xlink:href="#a" />
        <linearGradient id="C" x1="301.19" x2="338.74" y1="179.289" y2="179.289" xlink:href="#a" />
        <linearGradient id="D" x1="258.77" x2="291.65" y1="193.494" y2="193.494" xlink:href="#a" />
        <linearGradient id="E" x1="78.19" x2="921.81" y1="137.659" y2="137.659" xlink:href="#a" />
    </defs>
    <g data-name="Layer 7">
        <path fill="#fff"
            d="M624.78 258.961v295.51H369.02v-295.51a50.061 50.061 0 0 1 50.01-50.01h155.73a50.07 50.07 0 0 1 50.02 50.01Z" />
        <path fill="url(#a)"
            d="M574.76 206.951H419.03a52.067 52.067 0 0 0-52.01 52.01v297.51h259.76v-297.51a52.075 52.075 0 0 0-52.02-52.01Zm50.02 347.52H369.02v-295.51a50.061 50.061 0 0 1 50.01-50.01h155.73a50.07 50.07 0 0 1 50.02 50.01Z" />
    </g>
    <g data-name="Layer 2">
        <path fill="url(#d)"
            d="M551.78 308.961v-.65l-21.14-9.24-49.71 1.17-14.85 12.67 18.96 242.64.07.92h67.21l-.54-247.51z" />
        <path fill="url(#b)"
            d="m531.44 299.981.04.49-21.02 19.67-29.57-18.23.01-.57c.13-7.45-.21-10.89-.5-12.46-.03-.14-.05-.26-.08-.37a2.9 2.9 0 0 0-.29-.87c.06.09-.36-1.74-.36-1.74h52.44l-.67 1.43a16.694 16.694 0 0 0-.43 4.89c0 1.04.03 2.28.12 3.74.07 1.18.17 2.52.31 4.02Z" />
        <path fill="#03007a"
            d="M531.44 287.331a16.694 16.694 0 0 0-.43 4.89c0 1.04.03 2.28.12 3.74l-.26.21s-24.83 11.11-50.47-7.29a.01.01 0 0 0-.01-.01l-.07-.36-.51-2.61-.14-.72 52.44.72Z"
            style="isolation:isolate" opacity=".2" />
        <path fill="url(#e)"
            d="M565.7 221.861a12.816 12.816 0 0 0-9.2-3.85h-.72l-.14-13.98a21.058 21.058 0 0 0-21.05-20.84h-59.4a21.061 21.061 0 0 0-21.06 21.06v13.76h-2.77a12.906 12.906 0 0 0-12.91 12.91 13.261 13.261 0 0 0 13.26 12.91h1.76a.66.66 0 0 1 .66.66 50.65 50.65 0 0 0 101.3 0 .66.66 0 0 1 .66-.66h.41a12.967 12.967 0 0 0 12.91-12.71 12.783 12.783 0 0 0-3.71-9.26Z" />
        <circle cx="486.72" cy="269.791" r="8.15" style="isolation:isolate" fill="#e6635d"
            opacity=".5" />
        <path fill="url(#c)"
            d="M548.63 166.311a65.102 65.102 0 0 1-14.81-15.14c-2.65-3.59-4.93-6.7-9.82-9.74-5.35-3.33-25.33-12.5-57.94 9.31-36.51 24.41-24.37 60.75-21.57 68.19l.33.85.93-.47a11.774 11.774 0 0 1 5.6-1.32h4.77v-12.08a13.306 13.306 0 0 1 7.73-12.27c5.12-2.27 10.6-.81 16.27 4.33a35.463 35.463 0 0 1 4.77 6.22c4.93 7.35 11.68 17.41 26.41 17.41 11.12 0 16.37-6.22 21-11.7 3.58-4.24 6.67-7.9 11.84-7.98a7.689 7.689 0 0 1 6.27 2.52c4.2 4.69 3.03 14.35 3.01 14.45l-.16 1.27 1.27-.15c.04 0 2.23-2.45 8.2-.29l1.36.93.2-1.63c.06-.4 4.67-37.2-15.66-52.71Z" />
        <path fill="#fff"
            d="m510.46 320.141-13.56 16.52-17.8-14.8 1.79-19.95 29.57 18.23zM543.74 307.011l-15.42 29.65-17.86-16.52 21.02-19.67 12.26 6.54zM596.57 601.961a3.233 3.233 0 0 1 1.63.44l55.31 34.38-87.55 1.53a2.319 2.319 0 0 1-1.17-.3l-44.98-36.05" />
        <path fill="url(#f)"
            d="m657.01 636.601-57.77-35.91a5.329 5.329 0 0 0-2.67-.73h-77.73a1.663 1.663 0 0 0-.93 3.04l45.69 36.61.1.07a4.17 4.17 0 0 0 2.22.63h.08l90.43-1.59a1.142 1.142 0 0 0 .58-2.12Zm-92.22 1.41-44.98-36.05h76.76a3.233 3.233 0 0 1 1.63.44l55.31 34.38-87.55 1.53a2.32 2.32 0 0 1-1.17-.3Z" />
        <path fill="url(#g)"
            d="M554.81 218.081a1.008 1.008 0 0 0-1.31.54l-7.83 19.01v-1.08a2.755 2.755 0 0 0-2.75-2.75h-24.08a2.763 2.763 0 0 0-2.76 2.75v6.94h-11.15v-6.94a2.755 2.755 0 0 0-2.75-2.75H478.1a2.763 2.763 0 0 0-2.76 2.75v3.41l-19.46-22.41a.999.999 0 0 0-1.5 1.32l20.97 24.14v7.95a2.763 2.763 0 0 0 2.76 2.75h24.08a2.755 2.755 0 0 0 2.75-2.75v-5.47h11.15v5.47a2.763 2.763 0 0 0 2.76 2.75h24.08a2.755 2.755 0 0 0 2.75-2.75v-8.29a.972.972 0 0 0 .22-.31l9.46-22.97a1.017 1.017 0 0 0-.55-1.31Zm-51.88 32.89a.755.755 0 0 1-.75.75H478.1a.758.758 0 0 1-.76-.75v-14.41a.758.758 0 0 1 .76-.75h24.08a.755.755 0 0 1 .75.75v14.41Zm40.74 0a.755.755 0 0 1-.75.75h-24.08a.758.758 0 0 1-.76-.75v-14.41a.758.758 0 0 1 .76-.75h24.08a.755.755 0 0 1 .75.75Z" />
        <path fill="url(#h)" d="M551.94 562.601a4.17 4.17 0 1 0-7.75 3.08l9.92 24.1 10.4 2.83Z" />
        <path fill="url(#i)"
            d="M573.94 597.801a2.097 2.097 0 0 0-1.02-1.63l-11.89-8.17c-.21-.14-5.44-3.45-16.02-4.69-1.06-.13-3.36.44-8.05 1.6-8.35 2.08-22.31 5.56-30.41 3.87-.29-.07-.53-.11-.78-.15-.19-.03-.4-.07-.65-.12l-1.04-.21-.15 1.05c-.03.23-3.13 22.23-9.89 36.8l-.56 1.21 1.31.2a174.993 174.993 0 0 0 25.55 1.97c5.01.15 10.41.24 15.54.24 9.19 0 17.53-.3 21.23-1.14 1.83-.41 4.51-3.06 5-5.52l.03-.15a3.12 3.12 0 0 0-.28-2.03 1.365 1.365 0 0 0 .21-.15h.01a8.333 8.333 0 0 0 3.4-4.16 5.204 5.204 0 0 0-.28-3.71 14.485 14.485 0 0 0 4.09-8.01c1.46-1.35 4.87-4.77 4.65-7.1Z" />
        <path fill="#e6635d"
            d="M513.56 283.431a1.003 1.003 0 0 0-1.23-.7c-5.93 1.64-11.6-1.33-12.71-5.07a.997.997 0 1 0-1.91.57c1.12 3.77 5.82 6.95 11.32 6.95a14.36 14.36 0 0 0 3.84-.52.997.997 0 0 0 .69-1.23Z" />
        <path fill="#fff"
            d="M504.56 584.771c-3.09 24.78-9.99 41.47-11.79 43.73-5.98-1.66-77.99-26.04-104.28-36.84-27.13-11.14-30.81-29.95-31.22-43.12-1.58-50.32 10.19-160.55 45.63-199.71 31.59-34.92 68.99-44.64 76.46-46.24-.42 6.71-.6 40.32 5.69 90.18 6.64 52.64 3.18 151.03 2.77 161.82l-51.62-.05Z" />
        <path fill="url(#j)"
            d="m445.69 556.551 44.05.04.04-.96c.05-1.06 4.27-107.49-2.75-163.11-6.64-52.61-6.4-86.96-6.14-90.61l.04-1.67-.71.13c-1.84.34-43.98 8.62-78.81 47.12-35.81 39.58-47.72 150.52-46.14 201.11.67 21.53 11.29 36.22 32.46 44.91 25.66 10.54 103.63 37.07 105.27 37.07 1.99 0 4.97-8.28 6.57-13.22a177.56 177.56 0 0 0 7.06-33.08l.09-.74Zm-57.2 35.11c-27.13-11.14-30.81-29.95-31.22-43.12-1.58-50.32 10.19-160.55 45.63-199.71 31.59-34.92 68.63-44.56 76.1-46.16-.42 6.71-.24 40.24 6.05 90.1 6.64 52.64 3.18 151.03 2.77 161.82l-51.62-.05 68.36 30.23c-3.09 24.78-9.99 41.47-11.79 43.73-5.98-1.66-77.99-26.04-104.28-36.84Z" />
        <path fill="url(#k)"
            d="M455.97 371.101c.55-2.89 6.57-14.52 10.43-21.53l.5-.91-21.35-10.68c4.83-14.66 14.2-28.83 14.29-28.98a1.003 1.003 0 0 0-1.67-1.11c-.1.15-9.96 15.08-14.8 30.29l-.26.81 21.02 10.51c-2.55 4.66-10.22 18.94-10.22 21.94v.41l.29.29c.35.35 34.67 35.66 34.67 87.58a1 1 0 0 0 2 0c.03-49.98-31.31-84.8-34.9-88.62Z" />
        <path fill="url(#l)"
            d="m441.31 554.621-23.58-9.1a1.58 1.58 0 0 1-1.01-1.6l9.6-84.06a1.002 1.002 0 1 0-1.99-.23l-9.6 84.08a3.604 3.604 0 0 0 2.28 3.66l23.58 9.1a.922.922 0 0 0 .36.07.993.993 0 0 0 .36-1.92Z" />
        <path fill="#03007a"
            d="m570.48 603.741-17.99-6.18s16.63 6.97 16.8 7.34ZM566.17 611.811l-14.47-3.78 13.5 4.88.97-1.1zM562.14 622.961l-.03.15-13.31-4.83 13.27 2.5a1.369 1.369 0 0 1-.21.15 3.12 3.12 0 0 1 .28 2.03ZM544.91 594.041s4.61 13.84-3.9 22.78Z"
            style="isolation:isolate" opacity=".2" />
        <path fill="url(#m)"
            d="M653.66 555.461c-.01-.67-1.08-67.58-12.15-126.18-7.17-37.93-13.88-66.52-35.03-89.03-29.19-31.07-69.55-40.12-74.18-41.05l-.94-.13.22 1.86c1.11 4.58 8.18 41.39 6.9 75.34-2.44 64.36 8.38 178.15 8.49 179.29l.09.9h106.62Zm-104.79-.99c-1.02-10.9-10.73-116.94-8.41-178.12 1.24-32.47-5.34-67.45-7.08-74.88 8.76 1.96 44.89 11.68 71.64 40.15 20.78 22.11 27.41 50.43 34.52 88.03 10.3 54.48 11.92 116.21 12.1 124.82H548.87Z" />
        <path fill="#fff"
            d="M651.64 554.471H548.87c-1.02-10.9-10.73-116.94-8.41-178.12 1.24-32.47-5.34-67.45-7.08-74.88 8.76 1.96 44.89 11.68 71.64 40.15 20.78 22.11 27.41 50.43 34.52 88.03 10.3 54.48 11.92 116.21 12.1 124.82Z" />
        <path fill="#03007a"
            d="m500.75 332.941 5.94 5.34-.8-12.47-5.14 7.13zM507.15 340.281l-10.25 186.2 23.59 22.71 6.61-15.21-19.95-193.7z"
            style="isolation:isolate" opacity=".2" />
        <path fill="url(#n)"
            d="m578.44 332.601-.38-.72c-4.91-9.25-19.63-23.55-20.25-24.15a.997.997 0 1 0-1.39 1.43c.15.14 14.35 13.94 19.49 22.94-2.48 2.05-11.53 9.49-14.54 11.07l-1.08.57.77.95c.09.12 9.19 11.38 11.38 16.75-3.26 4.94-32.45 50.54-32.45 98.3a1 1 0 0 0 2 0c0-49.69 32.07-97.13 32.39-97.6l.29-.42-.17-.48c-1.65-4.67-8.83-13.95-11.16-16.9 4.41-2.8 14.05-10.85 14.49-11.22Z" />
        <path fill="#2e45e5"
            d="M416.73 544.501a.998.998 0 0 0-1.41-.1 20.219 20.219 0 0 1-4.58 2.87 1 1 0 0 0 .39 1.92 1.046 1.046 0 0 0 .39-.08 21.794 21.794 0 0 0 5.1-3.2.99.99 0 0 0 .11-1.41Z" />
        <path fill="#ffc062"
            d="m520.49 329.421-3.4 8.86h-10.4l-4.32-8.28 8.13-9.67 9.99 9.09zM533 524.421l-5.04 8.16-.01.01-6.79 11.01a1.18 1.18 0 0 1-1.92.11l-15.04-19.3c-1.32-19.57 1.58-133.53 2.63-172.25v-.25c.01-.44.03-.88.03-1.3.14-5.1.24-8.7.29-10.33h9.73c1.42 13.42 18.08 171.54 16.12 184.14Z" />
        <path fill="#e6635d"
            d="M456.9 225.151c-4.26-.67-7.51-.07-9.68 1.78a7.512 7.512 0 0 0-2.55 5.32 1 1 0 0 0 2 0 5.468 5.468 0 0 1 1.85-3.8c1.7-1.45 4.42-1.9 8.07-1.32a1.002 1.002 0 0 0 .31-1.98ZM561.79 227.471a7.742 7.742 0 0 0-5.74-1.83 1 1 0 0 0 .03 2h.03c5.25-.15 5.53 3.46 5.55 3.88a1.004 1.004 0 0 0 1 .97h.03a.997.997 0 0 0 .97-1.03 6.253 6.253 0 0 0-1.87-3.99Z" />
        <path fill="#03007a"
            d="M510 315.991c.33-.1 15.69-12.26 21.36-16.91l.12 1.4-20.98 19.86-29.61-18.42.04-1.67ZM505.92 589.601s-1.92 34.76-.83 38.41c20 2.04 42.56 1.33 50.41.49a230.473 230.473 0 0 1-59.95-.83 222.724 222.724 0 0 0 10.37-38.07ZM531.57 300.941l3.77 22.23-2.18 5.22-1.59-27.45z"
            style="isolation:isolate" opacity=".2" />
        <path fill="#03007a" d="m480.89 301.911.26 21.65 3.21 2.67-3.47-24.32z"
            style="isolation:isolate" opacity=".2" />
        <path fill="#03007a"
            d="m502.37 330.471-7.13 10.9-13.71-9.27-.38-8.54 15.75 12.59 5.47-5.68zM520.49 329.421l10.14 10.86 5.64-9.95-.93-7.16-7.02 13.49-7.83-7.24zM510.5 320.331s-6.73 10.35.93 17.95h-4.74l-4.32-8.28ZM510.5 320.331l9.1 11.39.89-2.3-9.99-9.09zM527.96 532.581l-.01.01-6.79 11.01a1.18 1.18 0 0 1-1.92.11l-15.04-19.3c-1.32-19.57 1.58-133.53 2.63-172.25-.75 37.94-1.69 163.72 18.07 178.05Z"
            style="isolation:isolate" opacity=".2" />
    </g>
    <g data-name="Layer 1">
        <path fill="url(#o)" d="M355.62 554.551c.07.62.16 1.29.28 2H159.05a1 1 0 0 1 0-2Z" />
        <path fill="url(#p)"
            d="M841.95 555.551a1.003 1.003 0 0 1-1 1H445.69l-4.94-2h400.2a1.003 1.003 0 0 1 1 1Z" />
    </g>
    <g data-name="Layer 3">
        <path fill="#03007a"
            d="m470 423.231-1.96-2.11c-.09-.1-8.88-9.46-17.09-9.46-4.87 0-9.94 3.28-13.28 5.98a37.6 37.6 0 0 0-3.81 3.48l-1.97 2.12.34-4.13 1.63-1.76a37.609 37.609 0 0 1 3.81-3.48c3.34-2.7 8.41-5.98 13.28-5.98 8.21 0 17 9.36 17.09 9.46l1.62 1.74Z"
            style="isolation:isolate" opacity=".2" />
        <path fill="url(#q)"
            d="M453.07 342.481a1.002 1.002 0 1 0-1.99-.23l-.29 2.44a198.06 198.06 0 0 0-.85 44.75.994.994 0 0 0 1 .91h.09a.998.998 0 0 0 .91-1.08 196.268 196.268 0 0 1 .85-44.34Z" />
        <path fill="url(#r)"
            d="M447.26 457.811a5.443 5.443 0 0 1-1.43 3.31 4.35 4.35 0 0 1-.48.48 5.506 5.506 0 0 1-3.61 1.34c-.14 0-.27 0-.41-.01l-1.36-.1a1.968 1.968 0 0 1-1.81-2.1l.53-7.14a.644.644 0 0 1 .03-.2 1.88 1.88 0 0 1 .64-1.14 1.956 1.956 0 0 1 1.43-.47l1.35.1a5.529 5.529 0 0 1 5.12 5.93Z" />
        <path fill="url(#s)"
            d="M463.73 460.731a1.968 1.968 0 0 1-1.81 2.1l-1.36.1c-.13.01-.27.01-.41.01a5.537 5.537 0 0 1-.4-11.06l1.35-.1a1.928 1.928 0 0 1 1.43.47 1.895 1.895 0 0 1 .67 1.34l.1 1.4Z" />
        <path fill="#03007a"
            d="M570.94 431.911a14.42 14.42 0 1 0 14.42 14.42 14.438 14.438 0 0 0-14.42-14.42Z"
            style="isolation:isolate" opacity=".2" />
        <path fill="url(#t)"
            d="m472.32 448.171-2.75-33.96a25.286 25.286 0 0 0-8.21-16.72l-10.42-9.49-10.42 9.49a25.33 25.33 0 0 0-8.21 16.72l-2.75 33.96a9.543 9.543 0 0 0 9.51 10.31 1 1 0 0 0 0-2 7.538 7.538 0 0 1-7.51-8.15l2.75-33.96a23.362 23.362 0 0 1 7.56-15.41l9.07-8.26 9.07 8.26a23.317 23.317 0 0 1 7.56 15.41l2.75 33.96a7.538 7.538 0 0 1-7.51 8.15 1 1 0 1 0 0 2 9.543 9.543 0 0 0 9.51-10.31Z" />
        <path fill="#03007a"
            d="M441.11 457.481a.947.947 0 0 1-.9 1 8.166 8.166 0 0 1-6.28-3.07 10.29 10.29 0 0 1-2.23-7.24l1.93-26.61 1.93-1.88-2.08 28.66a8.056 8.056 0 0 0 1.77 5.72 6.378 6.378 0 0 0 4.96 2.42.954.954 0 0 1 .9 1ZM467.74 455.411a8.183 8.183 0 0 1-6.28 3.07 1.007 1.007 0 0 1 0-2 6.378 6.378 0 0 0 4.96-2.42 8.056 8.056 0 0 0 1.77-5.72l-2.11-29.11 1.93 1.84 1.96 27.1a10.29 10.29 0 0 1-2.23 7.24Z"
            style="isolation:isolate" opacity=".2" />
        <path fill="url(#u)"
            d="M569.52 370.101a.999.999 0 1 0-1.99.17c2.15 24.34 2.4 58.85 2.4 59.19a.994.994 0 0 0 1 .99h.01a.99.99 0 0 0 .99-1.01c0-.33-.25-34.91-2.41-59.34Z" />
        <path fill="url(#v)"
            d="M570.94 426.831a14.42 14.42 0 1 0 14.42 14.42 14.438 14.438 0 0 0-14.42-14.42Z" />
        <circle cx="570.94" cy="441.241" r="7.47" fill="#fff" />
        <path fill="url(#w)"
            d="m470 419.461-1.96-2.11c-.09-.1-8.88-9.46-17.09-9.46-4.87 0-9.94 3.28-13.28 5.98a37.6 37.6 0 0 0-3.81 3.48l-1.97 2.12.43-5.25a25.287 25.287 0 0 1 8.21-16.73l10.42-9.49 6.16 5.61 4.25 3.88a25.287 25.287 0 0 1 8.21 16.73Z" />
        <path fill="#03007a"
            d="M457.11 393.611a6.108 6.108 0 0 1-.65.38 41.73 41.73 0 0 0-8.48 6.31 51.56 51.56 0 0 0-4.79 4.79 31.944 31.944 0 0 0-5.52 8.78 37.598 37.598 0 0 0-3.81 3.48l-1.97 2.12.43-5.25a25.287 25.287 0 0 1 8.21-16.73l10.42-9.49ZM445.83 461.121a4.35 4.35 0 0 1-.48.48 5.506 5.506 0 0 1-3.61 1.34c-.14 0-.27 0-.41-.01l-1.36-.1a1.968 1.968 0 0 1-1.81-2.1l.53-7.14a.644.644 0 0 1 .03-.2 1.266 1.266 0 0 1 .35.3 13.656 13.656 0 0 1 1.38 2.82 8.96 8.96 0 0 0 2.36 2.77 15.527 15.527 0 0 0 3.02 1.84ZM463.73 460.731a1.968 1.968 0 0 1-1.81 2.1l-1.36.1c-.13.01-.27.01-.41.01a5.48 5.48 0 0 1-4.27-2.03.18.18 0 0 1 .07-.05 20.96 20.96 0 0 1 2.83-.97 8.356 8.356 0 0 0 2.65-1.82 7.412 7.412 0 0 0 1.83-3.13.175.175 0 0 1 .04.05Z"
            style="isolation:isolate" opacity=".2" />
    </g>
    <g data-name="Layer 4">
        <path fill="url(#x)"
            d="M295.6 146.061h-97.36a7.599 7.599 0 0 0-7.59 7.59v121.67a7.599 7.599 0 0 0 7.59 7.59h97.36a7.599 7.599 0 0 0 7.59-7.59v-121.67a7.605 7.605 0 0 0-7.59-7.59Z" />
        <path fill="#fff"
            d="M294.33 160.121v108.72a5.99 5.99 0 0 1-5.98 5.98h-82.88a5.99 5.99 0 0 1-5.98-5.98v-108.72a5.996 5.996 0 0 1 5.98-5.98h82.88a5.99 5.99 0 0 1 5.98 5.98Z" />
        <path fill="#ffc062"
            d="M217.26 181.401h59.31a1 1 0 0 0 0-2h-59.31a1 1 0 0 0 0 2ZM276.57 193.931h-59.31a1 1 0 0 0 0 2h59.31a1 1 0 0 0 0-2ZM276.57 208.471h-59.31a1 1 0 0 0 0 2h59.31a1 1 0 0 0 0-2ZM262.28 224.011a1.003 1.003 0 0 0-1-1h-44.02a1 1 0 1 0 0 2h44.02a1.003 1.003 0 0 0 1-1ZM268.16 244.121a9.09 9.09 0 1 0 9.09 9.09 9.103 9.103 0 0 0-9.09-9.09Z" />
    </g>
    <g data-name="Layer 5">
        <path fill="url(#y)"
            d="M819.72 406.241v156.6a19.928 19.928 0 0 1-19.93 19.93h-185.9a19.952 19.952 0 0 1-19.93-19.93v-156.6a19.952 19.952 0 0 1 19.93-19.93h185.9a19.118 19.118 0 0 1 2.28.13 19.954 19.954 0 0 1 17.65 19.8Z" />
        <path fill="#03007a"
            d="M819.72 406.241v156.6a19.928 19.928 0 0 1-19.93 19.93H638.1c12.83-3.04 25.54-6.52 38.02-10.79 28.82-9.86 56.57-24.14 78.64-45.15q2.385-2.25 4.63-4.6a153.818 153.818 0 0 0 16.7-20.71 161.808 161.808 0 0 0 13.01-23.34 165.858 165.858 0 0 0 9.06-25.16 164.17 164.17 0 0 0 4.9-26.28 159.672 159.672 0 0 0 .54-26.6 121.016 121.016 0 0 0-1.42-13.14c-.04-.19-.07-.37-.11-.56a19.954 19.954 0 0 1 17.65 19.8Z"
            style="isolation:isolate" opacity=".2" />
        <path fill="#03007a"
            d="m683.15 501.471 1.6 21.5a15.305 15.305 0 0 0 15.27 14.18h26.21a15.31 15.31 0 0 0 15.25-13.94l1.19-13.28Z"
            style="isolation:isolate" opacity=".2" />
        <path fill="url(#z)"
            d="M713.72 523.341a1.001 1.001 0 0 0-1.98.3c.04.23 3.54 23.54 2.17 58.08a399.595 399.595 0 0 1-8.06 65.88.995.995 0 0 0 .77 1.18 1.49 1.49 0 0 0 .21.02 1.003 1.003 0 0 0 .98-.79 402.519 402.519 0 0 0 8.1-66.21c1.38-34.75-2.15-58.23-2.19-58.46Z" />
        <path fill="url(#A)"
            d="M745.76 654.981v.09a8.28 8.28 0 0 1-8.27 8.27h-66.67a8.265 8.265 0 1 1 0-16.53h66.67a8.278 8.278 0 0 1 8.27 8.17Z" />
        <path fill="url(#B)"
            d="M742.7 496.271a6.222 6.222 0 0 0-4.75-2.2h-48.66a6.233 6.233 0 0 0-6.13 7.4l3.46 18.14a10.924 10.924 0 0 0 10.71 8.86h33.03a10.868 10.868 0 0 0 10.76-9.13l2.97-18.02a6.172 6.172 0 0 0-1.39-5.05Z" />
        <path fill="#fff"
            d="M336.74 610.251v34.21a5.31 5.31 0 0 1-5.3 5.3h-22.96a5.3 5.3 0 0 1-5.29-5.3v-34.25a4.751 4.751 0 0 1 .83-2.7l5.37-7.89h21l5.49 7.89a4.76 4.76 0 0 1 .86 2.74Z" />
        <path fill="#ffc062" d="M301.19 620.011h37.56v15.98h-37.56z" />
        <path fill="url(#C)"
            d="m337.52 606.361-5.61-8.05v-5.14a3.525 3.525 0 0 0-3.52-3.52h-17.04a3.525 3.525 0 0 0-3.52 3.52v5.19l-5.47 8.04a6.748 6.748 0 0 0-1.17 3.82v34.25a7.3 7.3 0 0 0 7.29 7.3h22.96a7.302 7.302 0 0 0 7.3-7.3v-34.21a6.775 6.775 0 0 0-1.22-3.9Zm-.78 38.1a5.31 5.31 0 0 1-5.3 5.3h-22.96a5.3 5.3 0 0 1-5.29-5.3v-34.25a4.751 4.751 0 0 1 .83-2.7l5.37-7.89h21l5.49 7.89a4.76 4.76 0 0 1 .86 2.74v34.21Z" />
        <path fill="#fff"
            d="M289.63 597.431v29.71a4.468 4.468 0 0 1-4.47 4.47h-19.94a4.475 4.475 0 0 1-4.47-4.47v-29.74a4.104 4.104 0 0 1 .7-2.27l4.63-6.8h18.1l4.73 6.8a4.04 4.04 0 0 1 .72 2.3Z" />
        <path fill="#ffc062" d="M258.75 603.891h32.88v15.98h-32.88z" />
        <path fill="url(#D)"
            d="m290.55 593.981-4.85-6.97v-4.57a3.034 3.034 0 0 0-3.03-3.03h-15.1a3.034 3.034 0 0 0-3.03 3.03v4.61l-4.72 6.95a6.032 6.032 0 0 0-1.05 3.39v29.74a6.48 6.48 0 0 0 6.47 6.47h19.94a6.474 6.474 0 0 0 6.47-6.47v-29.71a6.164 6.164 0 0 0-1.1-3.44Zm-.92 33.16a4.468 4.468 0 0 1-4.47 4.47h-19.94a4.475 4.475 0 0 1-4.47-4.47v-29.74a4.104 4.104 0 0 1 .7-2.27l4.63-6.8h18.1l4.73 6.8a4.04 4.04 0 0 1 .72 2.3v29.71Z" />
        <path fill="#03007a"
            d="M750.79 414.531h-84.15a1 1 0 0 0 0 2h84.15a1 1 0 1 0 0-2ZM739.23 424.911h-61.04a1 1 0 0 0 0 2h61.04a1 1 0 0 0 0-2ZM727.99 435.301h-38.56a1 1 0 0 0 0 2h38.56a1 1 0 0 0 0-2ZM745.76 654.981v.09a8.28 8.28 0 0 1-8.27 8.27h-66.67a8.265 8.265 0 1 1 0-16.53h5.03c.65.5 1.33.96 1.96 1.38a31.416 31.416 0 0 0 4.37 2.4 37.064 37.064 0 0 0 5.11 1.84 77.45 77.45 0 0 0 16.7 2.26q20.865 1.155 41.77.29Z"
            style="isolation:isolate" opacity=".2" />
    </g>
    <path fill="url(#E)" d="M920.81 661.341H79.19a1 1 0 0 0 0 2h841.62a1 1 0 0 0 0-2Z"
        data-name="Layer 6" />
</svg>