<svg xmlns="http://www.w3.org/2000/svg" viewBox="0 0 2571.5 1946">
    <path fill="none" stroke="#93b0af" stroke-linecap="round" stroke-linejoin="round"
        stroke-width="5.56"
        d="M304.69 1681.38s-31.2-62.41-68.64-72.81-116.5-49.92-126.9-112.33 4.16-99.85-10.4-156-45.76-79-58.24-106.09 2.08-79.05 8.32-120.65-22.89-70.75-16.65-91.5 43.69-12.48 72.81 18.72 68.65 93.61 68.65 135.22 52 89.45 52 89.45M281.88 1382.27c16.57 26.6 14.49 51.56 56.1 70.29s54.08 77 47.84 110.25" />
    <path fill="none" stroke="#e4a2a0" stroke-linecap="round" stroke-linejoin="round"
        stroke-width="5.56"
        d="M467 828.49a206.25 206.25 0 0 1-8.37-39.49c-2.08-20.81 18.72-70.73-4.16-95.7s-35.36-70.72-22.88-124.81S469 524.78 467 489.41s-21.81-78.5-20.8-93.61c2.08-31.2 35.36-39.52 54.09-4.16s18.72 66.57 41.6 81.13 49.92 29.12 56.17 72.81-14.57 68.65 31.2 104 81.13 62.41 85.29 104 10.4 72.81 10.4 72.81" />
    <path fill="none" stroke="#e9b4b2" stroke-linecap="round" stroke-linejoin="round"
        stroke-width="5.56"
        d="M1339.61 1383.91c-18.73-70.73-54.09-101.93-79-129s-33.29-54.09-31.21-93.61-29.12-83.21-45.76-99.86-10.4-57.55-18.72-90.14-70.73-88.75-70.73-88.75-47.85 12.48-39.53 85.28 25 91.53 14.57 137.3-12.49 97.77 16.64 131 33.28 47.85 27 74.89 6.24 104 25 131.06 54.09 58.24 45.77 101.93" />
    <path fill="none" stroke="#e9b4b2" stroke-linecap="round" stroke-linejoin="round"
        stroke-width="5.56"
        d="M1081.66 913.78c2.08 35.36 0 70.73 29.12 116.49s35.36 99.85 35.36 139.38 39.53 99.85 64.49 120.65 41.61 70.73 31.2 118.57-16.64 81.13-16.64 81.13" />
    <path fill="none" stroke="#6b9392" stroke-linecap="round" stroke-linejoin="round"
        stroke-width="5.56"
        d="M1405.13 737c41.61-14.56 70.73 77 85.29 131 14.23 52.85 89.52 103.39 66.57 110.26l-66.57 64.48c-21 6-46.54-108.87-56.16-172.66-9.72-64.38-72.26-118.03-29.13-133.08ZM1856.54 1126c10.4-56.16 43.69-85.29 87.37-145.61s72.81-101.94 99.85-118.58 25 29.13 8.32 70.73-60.33 101.93-68.65 124.81-41.6 131.06-70.72 153.94" />
    <path fill="none" stroke="#ffdfa3" stroke-linecap="round" stroke-linejoin="round"
        stroke-width="5.56"
        d="M2214 911.64c-15.91-53.55-39.44-81.81-97.7-107-46.73-20.17-95.44-32-121.71-70.56-23.48-34.41-21.87-82.28-19.59-124.08.15-2.73.29-5.33.43-7.86a180.67 180.67 0 0 1 63.57-55.87c47.86-25.19 97.08-52.7 97.08-74.89s-41.61-29.12-86 0c-35.08 23-58 54.67-72.23 80.64a460.79 460.79 0 0 1 6.11-57c2.57-16.08 11.59-64.93 8.38-89.33-7.41-56.14-40.46-95.21-74.89-109.06a18.44 18.44 0 0 0-25.08 14.08c.81-4.89-5.76 26.61 5.76 66.15 2.8 9.61 14.61 41.47 14.7 41.68s8.06 29.09 8.13 29.34c19.26 68.75 19.59 81.52 18 148-2.78 117.08 8.61 175.21 119.34 217.25 58.44 22.19 103.91 33 127.45 94.56 11.44 29.93 14.95 70.33 17.28 95.75 8.35 91.07 21 479.69 21.89 782.28l29.57-.55c-22.82-605.99-17.75-796.93-40.49-873.53Z" />
    <path fill="none" stroke="#6b9392" stroke-linecap="round" stroke-linejoin="round"
        stroke-width="5.56"
        d="M1651.78 1773.46s-5.46-66.5 51.86-128.08 84.61-86.2 95.53-162.56S1851 1340 1894.7 1305.48s76.43-105.91 90.08-162.56 51.86-101 95.53-125.61 49.13-130.55 87.34-169.95 84.62-91.14 125.56-78.82 16.38 78.82-13.65 123.15-38.21 88.67-35.48 130.54-27.29 110.84-54.59 150.25-49.13 110.83-49.13 155.17 6.38 102-35.48 147.78c-51.88 56.65-51.88 76.36-43.68 130.57s-27.29 137.93-60 177.34" />
    <path fill="none" stroke="#f0cdcc" stroke-linecap="round" stroke-linejoin="round"
        stroke-width="5.56"
        d="M1894.6 1776.55s-13.36-119.36 36.83-155.5c52-37.44 80.08-59.26 108.17-106.09 31.2-52 7.49-69 31.2-116.49 37.45-74.89 101.93-39.52 122.74-87.37s-1.47-83.72 42.21-114.93 83.21 14.56 114.42-35.36 29.12-122.74 81.13-160.18 116.49-10.4 108.17 66.57-52 91.53-85.29 110.25-58.25 58.25-35.37 93.61 29.13 74.89-4.16 112.33-81.12 14.56-122.73 47.85-25 70.72-12.48 108.17 25 87.37-20.8 120.65-99.85 16.64-122.74 41.61 0 49.92-18.72 81.12" />
    <path fill="none" stroke="#303145" stroke-linecap="round" stroke-linejoin="round"
        stroke-width="5.56" d="M280.66 874.95H907.5v461.81H280.66z" />
    <rect width="728.37" height="552.84" x="229.89" y="829.43" fill="none" stroke="#ffd585"
        stroke-linecap="round" stroke-linejoin="round" stroke-width="5.56" rx="48.17" />
    <path fill="none" stroke="#ffd585" stroke-linecap="round" stroke-linejoin="round"
        stroke-width="5.56"
        d="M532.37 1382.27H655.8v181.92H532.37zM306.77 1718.13v-87.39a66.54 66.54 0 0 1 66.54-66.54h441.54a66.54 66.54 0 0 1 66.54 66.54v87.39" />
    <path fill="#303145"
        d="m1271.52 925.12-523 77a11.82 11.82 0 0 1-13.41-10L626.3 252.44a11.81 11.81 0 0 1 10-13.41l523-77a11.82 11.82 0 0 1 13.42 10l108.84 739.67a11.82 11.82 0 0 1-10.04 13.42Z" />
    <rect width="148.69" height="38.12" x="668.9" y="255.87" fill="#fff" rx="1.42"
        transform="rotate(-8.37 743.386 274.984)" />
    <rect width="92.75" height="19.93" x="1056.74" y="196.42" fill="#fff" rx=".81"
        transform="rotate(-8.37 1103.3 206.38)" />
    <rect width="92.75" height="19.93" x="775.91" y="928.66" fill="#fff" rx=".81"
        transform="rotate(-8.37 822.457 938.757)" />
    <path fill="none" stroke="#f4baa5" stroke-linecap="round" stroke-linejoin="round"
        stroke-width="2.78"
        d="M849.71 210c14.56 33.28 31.9 97.77 22.88 141.45s-33.28 95-33.28 131.75 9 59.64 44.38 64.49 52-38.14 65.87-52.7 33.29-21.5 58.94-11.79 71.42 15.26 95-5.54 24.27-61.72 6.93-81.83-54.72-39.3-63.79-75.58c-10.4-41.6-29.82-106.78-39.52-133.83M1118.06 816.7s-9.71-52.7-14.56-96.38 4.16-61 14.56-76.28 31.9-45.76 29.12-74.19-36-43.69-56.85-39.53-35.37 2.08-54.78-4.16-38.14-6.93-60.33 5.55-25 31.2-43 43.69-48.18 11.43-54.78 18c-13.18 13.18-18.72 57.56 6.93 77.67s47.15 28.43 72.12 36 43.68 50.62 49.23 101.24 20.8 129 23.58 149.08" />
    <path fill="none" stroke="#f4baa5" stroke-linecap="round" stroke-linejoin="round"
        stroke-width="2.78"
        d="M959.27 969.25c-2.77-20.11-14.56-88.75-27.74-129.67s-36.75-81.82-35.36-95.69S903.8 721 919.05 728s37.45 27 45.07 59.63 16 83.9 20.11 106.09S997.41 963 997.41 963" />
    <path fill="#f7e5dd"
        d="m1108 948.8 38.48-5.2s-52.7-46.46-51.31-86.68 45.07-55.47 89.45-26.35c33.51 22 95 81.13 95 81.13l-16-122s70.15 60.25 99.15 107.48c24.27 39.52 83.91 155.32 83.91 155.32l-177.52 138.68s-42.29-55.47-66.56-94.3-46.46-77.66-61.72-100.55S1108 948.8 1108 948.8Z" />
    <path fill="none" stroke="#e4a2a0" stroke-linecap="round" stroke-linejoin="round"
        stroke-width="2.78"
        d="M1146.14 944.29c19.77 26.35 32.94 52.7 42.65 83.21s38.83 73.5 71.42 88.06M1279.63 911.7c27 20.8 57.55 50.62 67.26 60.32M1102.11 840.28c11.79 20.8 38.83 38.13 63.8 37.44s39.52-27 39.52-27" />
    <path fill="#f7e5dd"
        d="M953 1578.76c-22.88-25-111.64-122.74-142.15-160.18s-77.66-93.61-97.77-121.35-54.78-66.56-40.91-98.46 54.09-17.34 65.18-9 30.51 27 30.51 27-12.48-52.7 2.08-86.68 40.91-31.2 53.39-25 15.26 37.44 15.26 37.44 6.24-8.32 22.88-3.46 22.88 27 22.88 27 6.94-4.85 20.81.69 22.91 47.24 22.91 47.24 27 15.26 39.52 39.53 47.85 49.92 73.5 69.34 52.7 70 52.7 70Z" />
    <path fill="none" stroke="#e4a2a0" stroke-linecap="round" stroke-linejoin="round"
        stroke-width="2.78"
        d="M928.07 1214c-19.42-9.7-52 3.47-52.7 34s29.82 80.44 40.22 99.85 15.25 56.17 14.56 75.58" />
    <path fill="none" stroke="#e4a2a0" stroke-linecap="round" stroke-linejoin="round"
        stroke-width="2.78"
        d="M885.08 1224.43c.69 14.56 23 43.55 45.07 49.92 26.35 7.63 40.91-10.4 40.91-10.4M767.89 1216.8c20.8 24.27 53.39 54.08 66.57 67.26s50.62 32.59 59.63 51.31M838.62 1142.6c-1.39 20.11 2.08 61 9 76.28s24.27 66.57 27 92.91M884.38 1166.18c9.71 22.19 10.4 48.54 10.4 48.54M671.51 1207.09c10.4 13.87 47.84 55.47 36 76.27M765.12 1182.82c10.4 0 25-74.19 25-74.19" />
    <path fill="#e4a2a0"
        d="m976.61 1619.67-34.67-37.45s11.68-55.08 63.79-115.1c54.78-63.1 86-81.82 86-81.82l54.78 47.15ZM1260.9 1185.59s41.61-48.53 79-77.66 106.1-67.26 106.1-67.26l32.59 46.46-180.28 147Z" />
    <path fill="#d0d0d0"
        d="M1270.61 1223a771.92 771.92 0 0 1 77.66-76.28c47.15-40.21 117.88-83.21 117.88-83.21l61 91.53-181.65 173.4Z" />
    <path fill="#f7e5dd"
        d="M1547.63 384.36s-18.2 9.88-24.45 46.81-6.76 42.64-6.76 42.64-28.08 7.8-28.6 18.72 25.48 19.77 25.48 19.77-5.72 49.4-4.68 74.36 10.4 51.49 40.05 63.45 53.56 12.48 53.56 12.48 11.44 76.45 17.69 119.09 10.4 100.9 10.4 100.9l196.58-70.21s-27.05-84.25-35.37-114.41-25-79.05-25-79.05-21.32-142-50.44-197.62-84.25-57.73-108.18-55.65-60.28 18.72-60.28 18.72Z" />
    <path fill="#3a4e5b"
        d="M1544.85 387.14c-11.84-9.67-21.49-32.94-12.13-54.09s43-26.7 56.86-18.72 27.73 5.2 35.71-5.2 17.68-23.58 37.79-27.05 33.35 3.18 43.68 11.45c8.67 6.93 15.26 20.45 16.65 34s17.68 10.4 26.35 9.71 26.35.69 34.67 14.56 8.32 23.92 6.93 35 3.12 21.15 14.91 25.65 32.59 5.21 42.64 31.9 7.28 50.62-.69 70.73-27 31.55-42.64 35-21.15 13.52-20.81 24.61-1.38 35-20.8 44-56.51.35-63.45-20.8 1.74-28.77-8-36.06-23.23 1.39-35.36-6.58-16-18.73-16-18.73 19-9.3 27-32.93c8.67-25.31 5.89-52.35-2.08-64.84s-30.51-15.25-38.83-1.38c-4.7 7.84-13 34.35-16.58 46.69a9.29 9.29 0 0 1-8.68 6.73c-6.81.17-16.41-.19-17.73-3.5-2.08-5.2 4.51-42.64 6.93-56.16s5.9-26 0-31.21-33.19-2.04-46.34-12.78Z" />
    <path fill="none" stroke="#303145" stroke-linecap="round" stroke-linejoin="round"
        stroke-width="5.56" d="M1522.66 449.54c12-2.77 22.54-2.6 33.63-1.38" />
    <ellipse cx="1536.53" cy="474.85" fill="#100c27" rx="4.86" ry="7.11" />
    <path fill="none" stroke="#e4a2a0" stroke-linecap="round" stroke-linejoin="round"
        stroke-width="2.78"
        d="M1512.61 531c6.24 0 20.46-1.56 20.46-1.56M1646.44 460.29c-2.43 10.4-13.52 44.38-18 52.35M1602.23 662.59c19.59 1.22 44.9-21 53.22-38.66" />
    <path fill="#f3a8a3"
        d="M1557.54 535.48c-8.92-1.64-12.25-9.12-9.85-22.18s8.15-18.89 17.07-17.25 12.24 9.11 9.85 22.18-8.15 18.88-17.07 17.25Z" />
    <path fill="none" stroke="#6b9392" stroke-linecap="round" stroke-linejoin="round"
        stroke-width="2.78"
        d="M1499.09 479.36c10.05 4.51 26.7 13.52 52 12.83s42.65-21.5 42.65-21.5-5.55 41.95 3.12 62.75 22.19 28.09 22.19 28.09-4.51 42.3-10.4 64.83a290.25 290.25 0 0 1-12.14 37.1s-71.7 6.57-101.23-50.62c-27-52.35-17.85-82.5-13.87-101.58 5.2-24.97 17.68-31.9 17.68-31.9Z" />
    <path fill="none" stroke="#6b9392" stroke-linecap="round" stroke-linejoin="round"
        stroke-width="2.78"
        d="M1593.05 516.46c-14.22 9-43.69 22.88-52 25.31M1603.1 546.27c-6.24 8.67-25.31 33.63-32.24 42M1593.74 470.69c8.32-8.32 31.2-30.16 31.2-30.16M1619.05 561.53c6.24-5.2 16-23.93 16-23.93" />
    <path fill="none" stroke="#e4a2a0" stroke-linecap="round" stroke-linejoin="round"
        stroke-width="2.78" d="M1641.24 536.56c-19.42 5.21-27.74-8.66-27.74-8.66" />
    <path fill="none" stroke="#303145" stroke-linecap="round" stroke-linejoin="round"
        stroke-width="2.78"
        d="M1569.47 345.18c3.47-11.09 29.82-2.77 44.38 7.63s34-1.39 33.28-19.41M1647 408.8c16.12-7.8 33.8 5.2 37.44 18.21s6.76 22.36 17.68 26.52M1703.12 347.44c-2.6 13 7.8 22.88 20.29 25.48s28.08-8.32 36.92 3.12M1769.69 432.73c-3.12 13.52 9.36 30.68 28.6 33.28s23.93 22.88 21.33 31.72M1757.21 510.22c-16.12 1.56-23.4 19.76-22.36 32.24s-2.08 24.44-10.92 28.08M1687 496.69c-5.2 6.76-3.64 33.29 8.84 42.13M1760.85 576.78c-2.08 10.92-13 25-24.44 23.93M1782.69 525.82c9.88.52 25 1.56 32.25-5.72M1743.69 416.09c-15.08 3.64-22.88 32.24-12 47.84M1585.59 375.52c20.8-1.56 33.81 20.28 29.64 34.32" />
    <path fill="#e4a2a0"
        d="M1598.59 942.21s13.31-30.59 33.29-58.25c27-37.44 172-113.72 194.84-109.56 9.71 25.66 29.82 81.13 29.82 81.13Z" />
    <path fill="#f0ead9"
        d="M1401 1134.28c36.2-72.39 102.46-141.49 165-187.22 90.15-65.87 273.9-141.45 273.9-141.45s65.83 140.25 91.53 316.19c27 185.14 56.16 490.93 49.92 661.51-216.49 28-407.72 27-574.14 0 0 0-91.53 81.13-218.42 27s-233-183-233-183 49.93-83.21 87.37-129 83.21-89.45 83.21-89.45l124.82 99.85s85.29-245.45 149.81-374.43Z" />
    <path fill="none" stroke="#303145" stroke-linecap="round" stroke-linejoin="round"
        stroke-width="2.78"
        d="M1610.38 922.1c29.82-15.26 95.06-33.61 135.91-43 51.31-11.79 112.33-18.72 112.33-18.72M1585.42 937.35c25-11.78 92.91-22.18 144.23 3.47M1407.21 1783.31c64.49-37.44 133.83-119.26 197.62-216.34s170.58-328.68 170.58-328.68M1969.57 1533.69c-19.42 9.7-94.31 34.67-126.2 44.37s-59.64 22.19-55.48 59.64 51.32 41.6 90.15 31.89 95.69-33.28 104-38.83" />
    <circle cx="1832.27" cy="1629.38" r="18.03" fill="none" stroke="#303145" stroke-linecap="round"
        stroke-linejoin="round" stroke-width="2.78" transform="rotate(-13.28 1832.666 1629.65)" />
    <path fill="none" stroke="#303145" stroke-linecap="round" stroke-linejoin="round"
        stroke-width="2.78"
        d="M1679.72 1564.2c-25 18-87.37 84.59-119.26 99.85M1251.2 1508.72c-25 61-48.54 119.27-48.54 119.27" />
    <circle cx="2146.38" cy="359.75" r="22.88" fill="none" stroke="#e4a2a0" stroke-linecap="round"
        stroke-linejoin="round" stroke-width="5.56" transform="rotate(-82.98 2146.427 359.716)" />
    <circle cx="2163.03" cy="685.65" r="18.72" fill="none" stroke="#6b9392" stroke-linecap="round"
        stroke-linejoin="round" stroke-width="5.56" transform="rotate(-82.98 2163.076 685.624)" />
    <circle cx="285.97" cy="707.14" r="37.44" fill="none" stroke="#ffd585" stroke-linecap="round"
        stroke-linejoin="round" stroke-width="5.56" transform="rotate(-17.77 285.96 707.096)" />
    <path fill="none" stroke="#e4a2a0" stroke-linecap="round" stroke-linejoin="round"
        stroke-width="5.56"
        d="M1399.63 613.25c-35.26-10.74-48.43-47.84-32.48-72.67s28.83-61.93-7.34-86.78-43.81-55.5-21.44-85.8 12.43-57.18-16.54-71.45" />
    <path fill="none" stroke="#ffd585" stroke-linecap="round" stroke-linejoin="round"
        stroke-width="5.56" d="m1602.75 117.05 16.65 89.45" />
    <path fill="none" stroke="#6b9392" stroke-linecap="round" stroke-linejoin="round"
        stroke-width="5.56" d="m1883.58 162.82-47.84 91.53M1286.56 148.26l-33.28 60.32" />
    <path fill="none" stroke="#ffd585" stroke-linecap="round" stroke-linejoin="round"
        stroke-width="5.56" d="m523.12 275.15 64.48 41.6" />
    <path fill="none" stroke="#e4a2a0" stroke-linecap="round" stroke-linejoin="round"
        stroke-width="5.56"
        d="M411 996.73c21.28 33.12 64 74.85 106.63 78.94s93.91-13.25 103.53-50-31.16-47.13-49.46-26.56-10.62 71 35.86 100.27 104.44 15.62 131.9-5.87" />
</svg>